Coordinates
version=1
nRows=22
nColumns=24
inDegrees=yes

Units are S.I. units (second, meters, Newtons, ...)
Angles are in degrees.

endheader
time	pelvis_tilt	pelvis_list	pelvis_rotation	pelvis_tx	pelvis_ty	pelvis_tz	hip_flexion_r	hip_adduction_r	hip_rotation_r	knee_angle_r	ankle_angle_r	subtalar_angle_r	mtp_angle_r	hip_flexion_l	hip_adduction_l	hip_rotation_l	knee_angle_l	ankle_angle_l	subtalar_angle_l	mtp_angle_l	lumbar_extension	lumbar_bending	lumbar_rotation
      1.07483333	     -0.76774622	      0.78635595	      2.32033746	      0.55226886	      1.01679273	      0.32256806	      9.06443854	      3.28602346	      2.64830879	    -14.53619752	      5.27188037	    -12.89229476	      8.65285293	     16.42865181	      0.64509828	     -3.09387979	    -69.85167487	      4.22982596	     -6.70241225	      5.06211280	      0.11395764	     -0.15426675	      1.95870840
      1.07900000	     -0.75354775	      0.86738130	      2.03257618	      0.55693577	      1.01736266	      0.32294675	      8.62434511	      3.22595584	      2.80664805	    -14.23462174	      5.35287521	    -12.71482886	      8.79974334	     16.95779986	      0.71126349	     -3.36771919	    -69.60294167	      4.37638898	     -6.91639375	      4.96570069	      0.06824059	     -0.23040484	      2.19038223
      1.08316667	     -0.74049565	      0.93953138	      1.74786896	      0.56156583	      1.01789216	      0.32333219	      8.19016345	      3.17340064	      2.96900534	    -13.93616231	      5.41319065	    -12.54280438	      8.88033112	     17.48618896	      0.75723562	     -3.64192735	    -69.33220577	      4.52800071	     -7.13180641	      4.90902542	      0.01557249	     -0.30381870	      2.30699431
      1.08733333	     -0.73278777	      1.02425312	      1.47065495	      0.56619618	      1.01840146	      0.32367738	      7.76297492	      3.09939460	      3.12413199	    -13.64212956	      5.48674629	    -12.36957640	      8.95034817	     18.00636842	      0.82224251	     -3.90030236	    -69.01721162	      4.65939782	     -7.36386190	      4.85597731	     -0.02145455	     -0.37631609	      2.45996465
      1.09150000	     -0.70408926	      1.09457384	      1.20688504	      0.57079484	      1.01889060	      0.32401472	      7.31409916	      3.03803651	      3.26584122	    -13.34584606	      5.58378421	    -12.19465118	      9.03866060	     18.50308674	      0.86672751	     -4.14090112	    -68.68403561	      4.77178404	     -7.60128741	      4.78416382	     -0.08941221	     -0.44991420	      2.67421462
      1.09566667	     -0.68007245	      1.18985042	      0.95054892	      0.57539762	      1.01937822	      0.32431227	      6.87465050	      2.94195579	      3.40067000	    -13.06323907	      5.69691020	    -12.01188627	      9.15748577	     18.98612898	      0.94356571	     -4.36973447	    -68.29243408	      4.86333171	     -7.83903717	      4.68113640	     -0.14810137	     -0.52812782	      2.91249076
      1.09983333	     -0.68271909	      1.25365418	      0.69210514	      0.57997258	      1.01975543	      0.32462135	      6.47318623	      2.87870604	      3.53872065	    -12.79208952	      5.79288375	    -11.83356274	      9.28429632	     19.50084577	      0.97327743	     -4.60013421	    -67.90156381	      4.97316274	     -8.05122554	      4.56438389	     -0.18001548	     -0.58786472	      3.10202650
      1.10400000	     -0.66890865	      1.31008105	      0.43716821	      0.58452972	      1.02013015	      0.32492425	      6.05190958	      2.82081147	      3.68401297	    -12.51278176	      5.84900180	    -11.66560129	      9.32726994	     19.98865327	      0.98757852	     -4.82466377	    -67.48348187	      5.11445195	     -8.20644583	      4.52398513	     -0.23021210	     -0.62967476	      3.15553187
      1.10816667	     -0.64724502	      1.37235830	      0.18467482	      0.58907914	      1.02049729	      0.32521225	      5.62532166	      2.75239827	      3.82854743	    -12.24006708	      5.93455868	    -11.49490514	      9.37932640	     20.45424240	      1.00759213	     -5.04198087	    -67.02295520	      5.20676593	     -8.39390147	      4.47118001	     -0.29612086	     -0.68943367	      3.28866890
      1.11233333	     -0.65529488	      1.41081658	     -0.01514161	      0.59365409	      1.02077388	      0.32544602	      5.21355192	      2.70450263	      3.92516074	    -11.94151914	      6.04546326	    -11.35980191	      9.40089127	     20.95393242	      1.01295300	     -5.19459230	    -66.55489215	      5.31759015	     -8.49332335	      4.45071579	     -0.29984220	     -0.73251639	      3.34633714
      1.11650000	     -0.60725817	      1.49355497	     -0.28653852	      0.59815239	      1.02111290	      0.32572652	      4.78826599	      2.60542768	      4.05651071	    -11.72332525	      6.17393359	    -11.13505043	      9.49681334	     21.36518329	      1.04598082	     -5.42378682	    -66.01972747	      5.35187601	     -8.70510414	      4.34207640	     -0.41958039	     -0.81383914	      3.68670493
      1.12066667	     -0.61586587	      1.55037894	     -0.52868995	      0.60267299	      1.02132461	      0.32597691	      4.41483739	      2.53151340	      4.17284053	    -11.49053264	      6.29469581	    -10.93232524	      9.60510853	     21.83626102	      1.05091741	     -5.61771228	    -65.47812582	      5.43614170	     -8.78994045	      4.21606195	     -0.44632905	     -0.86848358	      3.87220978
      1.12483333	     -0.59651291	      1.58738214	     -0.76794829	      0.60718659	      1.02155256	      0.32620936	      4.00414409	      2.47556168	      4.29905265	    -11.23860641	      6.36011058	    -10.76223422	      9.65604028	     22.26570238	      1.03053334	     -5.80114237	    -64.91106988	      5.52697422	     -8.83921371	      4.15555833	     -0.50271089	     -0.88510854	      3.93726378
      1.12900000	     -0.57525944	      1.62975011	     -0.99042669	      0.61168676	      1.02173945	      0.32642797	      3.59446210	      2.41042256	      4.40266337	    -10.99619369	      6.49386852	    -10.57121697	      9.74816825	     22.68620796	      1.02078730	     -5.95895101	    -64.31724033	      5.59559390	     -8.87234054	      4.04064128	     -0.57662889	     -0.93454947	      4.13768895
      1.13316667	     -0.58127155	      1.66456606	     -1.21986896	      0.61619043	      1.02187181	      0.32664629	      3.21418641	      2.35241431	      4.53224921	    -10.74969092	      6.56475601	    -10.40483779	      9.77862104	     23.12316226	      0.99311414	     -6.12311444	    -63.69579636	      5.66418298	     -8.86471695	      4.00412521	     -0.61119561	     -0.96919542	      4.17991655
      1.13733333	     -0.56756777	      1.70324006	     -1.46259982	      0.62068067	      1.02200295	      0.32685439	      2.83110244	      2.28529046	      4.65119594	    -10.53965231	      6.67299953	    -10.22501153	      9.82306807	     23.51941026	      0.96668095	     -6.29019298	    -63.03191060	      5.72204368	     -8.81250599	      3.94907279	     -0.66531945	     -0.98710772	      4.31764476
      1.14150000	     -0.52728620	      1.73631200	     -1.68119148	      0.62516241	      1.02212679	      0.32703377	      2.41135433	      2.21944396	      4.73988529	    -10.31502602	      6.81846551	    -10.01290855	      9.89312446	     23.88145667	      0.94174614	     -6.42643775	    -62.34998291	      5.78424494	     -8.73733685	      3.85884742	     -0.76251164	     -1.02086329	      4.52094386
      1.14566667	     -0.55935846	      1.75088136	     -1.89738437	      0.62966304	      1.02211896	      0.32721429	      2.06492933	      2.17574908	      4.86002683	    -10.07994961	      6.89992340	     -9.85823533	      9.91140524	     24.31453777	      0.88834526	     -6.55651330	    -61.65350207	      5.82140882	     -8.65426654	      3.83844553	     -0.76614239	     -1.03509597	      4.55203261
      1.14983333	     -0.52648799	      1.79209875	     -2.14973611	      0.63413657	      1.02219130	      0.32741706	      1.68122416	      2.09664698	      4.97508675	     -9.90648048	      7.01724416	     -9.66223147	      9.94626848	     24.64659349	      0.85016779	     -6.72448927	    -60.89498588	      5.87082708	     -8.46713888	      3.79828309	     -0.84838758	     -1.06161730	      4.70089380
      1.15400000	     -0.53528674	      1.80868326	     -2.37569335	      0.63862616	      1.02215120	      0.32758358	      1.32780936	      2.04292826	      5.08355185	     -9.70708984	      7.13305235	     -9.47286414	      9.97481434	     25.02249709	      0.79262985	     -6.85227161	    -60.13300903	      5.91011333	     -8.28718214	      3.76751384	     -0.88317791	     -1.07068007	      4.82192698
      1.15816667	     -0.52976160	      1.83802425	     -2.60212040	      0.64313222	      1.02212626	      0.32774785	      0.95976472	      1.97201173	      5.18700762	     -9.50903053	      7.25392647	     -9.27982938	      9.99978679	     25.36307341	      0.74561430	     -6.98430126	    -59.32961889	      5.93638916	     -8.07700079	      3.74316366	     -0.93808547	     -1.09931484	      4.93976961
      1.16233333	     -0.53064272	      1.84086939	     -2.82451693	      0.64762668	      1.02204165	      0.32789081	      0.60672245	      1.92734009	      5.28094170	     -9.32931074	      7.38329367	     -9.08541565	     10.02481003	     25.70182077	      0.67127544	     -7.09670004	    -58.51146582	      5.97613760	     -7.82283499	      3.72244100	     -0.97795801	     -1.09142420	      5.07018453
